<svg width="16" height="23" viewBox="0 0 16 23" fill="none" xmlns="http://www.w3.org/2000/svg">
<path d="M15.216 6.032L12.624 7.232C12 6.2 10.224 5.408 8.568 5.408C6.576 5.408 4.752 5.984 4.752 7.664C4.752 9.248 6.648 9.536 8.664 9.776C12.168 10.208 15.912 10.832 15.912 15.056C15.912 18.296 13.2 20.12 10.224 20.336V22.736H7.176V20.456C4.488 20.216 1.992 18.992 0.864 16.352L3.696 15.152C4.344 16.688 6.48 17.672 8.472 17.672C10.632 17.672 12.624 16.928 12.624 15.056C12.624 13.472 10.632 12.896 8.4 12.632C4.968 12.248 1.608 11.648 1.608 7.664C1.608 4.52 4.392 3.08 7.176 2.744V0.655999H10.224V2.744C12.264 3.056 14.136 3.824 15.216 6.032Z" fill="#000080"/>
</svg>
