<svg width="38" height="38" viewBox="0 0 38 38" fill="none" xmlns="http://www.w3.org/2000/svg">
<path d="M7.91655 29.8957L7.79305 29.9622C7.56262 30.0878 7.2917 30.1168 7.0399 30.0427C6.78811 29.9687 6.57605 29.7976 6.45039 29.5671C6.32472 29.3367 6.29575 29.0658 6.36983 28.814C6.44392 28.5622 6.61499 28.3501 6.84543 28.2245C9.20618 26.9364 11.3294 26.6364 13.4313 27.0243C15.4778 27.4027 17.4387 28.4248 19.4931 29.6234C23.2551 31.8171 27.6401 31.2312 30.0975 29.4761C30.2031 29.3981 30.3231 29.3418 30.4507 29.3106C30.5782 29.2795 30.7107 29.274 30.8404 29.2945C30.9701 29.315 31.0944 29.3612 31.206 29.4302C31.3177 29.4993 31.4145 29.5899 31.4909 29.6967C31.5672 29.8035 31.6215 29.9245 31.6506 30.0525C31.6797 30.1806 31.683 30.3131 31.6604 30.4425C31.6378 30.5718 31.5897 30.6953 31.5188 30.8059C31.448 30.9164 31.3558 31.0118 31.2478 31.0864C28.1642 33.2896 22.9384 33.9237 18.4964 31.3326C16.4483 30.1379 14.7486 29.2806 13.0719 28.971C11.483 28.6781 9.85455 28.8673 7.91655 29.8957ZM28.4999 27.6949C28.6574 27.645 28.8118 27.5911 28.9646 27.5341C29.7757 27.237 30.5442 26.8342 31.2501 26.3364C31.3582 26.2618 31.4503 26.1664 31.5212 26.0559C31.592 25.9453 31.6402 25.8218 31.6628 25.6925C31.6854 25.5631 31.6821 25.4306 31.653 25.3025C31.6239 25.1745 31.5696 25.0535 31.4932 24.9467C31.4169 24.8399 31.3201 24.7493 31.2084 24.6802C31.0967 24.6112 30.9724 24.565 30.8428 24.5445C30.7131 24.524 30.5806 24.5295 30.453 24.5606C30.3255 24.5918 30.2054 24.6481 30.0998 24.7261C27.6425 26.4812 23.2575 27.0671 19.4955 24.8734C17.4411 23.6748 15.4801 22.6527 13.4329 22.2743C11.331 21.8864 9.20855 22.1872 6.84622 23.4745C6.61579 23.6002 6.44475 23.8124 6.37074 24.0643C6.33409 24.189 6.32237 24.3197 6.33624 24.4489C6.35011 24.5782 6.3893 24.7034 6.45157 24.8175C6.51385 24.9316 6.59799 25.0324 6.69918 25.1139C6.80038 25.1955 6.91666 25.2564 7.04137 25.293C7.29325 25.367 7.5642 25.338 7.79464 25.2122C9.78726 24.1252 11.4521 23.9218 13.0735 24.221C14.7502 24.5306 16.4507 25.3879 18.498 26.5826C21.7992 28.5087 25.5335 28.652 28.4999 27.6949ZM10.3683 19.4861C11.0181 19.3533 11.6836 19.3149 12.3443 19.3721C12.5898 19.3934 12.8328 19.4275 13.0758 19.4718C14.7526 19.7814 16.4523 20.6395 18.5003 21.8334C22.9424 24.4245 28.1682 23.7904 31.2525 21.5871C31.3606 21.5126 31.4527 21.4172 31.5236 21.3067C31.5944 21.1961 31.6425 21.0726 31.6652 20.9432C31.6878 20.8139 31.6845 20.6814 31.6553 20.5533C31.6262 20.4253 31.5719 20.3043 31.4956 20.1975C31.4193 20.0907 31.3225 20.0001 31.2108 19.931C31.0991 19.862 30.9748 19.8158 30.8451 19.7953C30.7154 19.7748 30.583 19.7803 30.4554 19.8114C30.3279 19.8426 30.2078 19.8989 30.1022 19.9769C27.6441 21.732 23.2591 22.3179 19.4971 20.1241C17.4427 18.9256 15.4817 17.9035 13.4353 17.5251C11.3334 17.1372 9.21014 17.438 6.8486 18.7253C6.61816 18.851 6.44713 19.0632 6.37311 19.3151C6.2991 19.5669 6.32818 19.8379 6.45395 20.0683C6.57972 20.2988 6.79187 20.4698 7.04375 20.5438C7.29562 20.6178 7.56658 20.5887 7.79701 20.463C8.71455 19.9626 9.56243 19.6491 10.3683 19.4861ZM25.6657 19C25.6657 19.1741 25.6594 19.3483 25.6459 19.5193C26.3297 19.4517 27.0018 19.295 27.6449 19.053V19C27.6449 14.2262 23.7752 10.355 18.9999 10.355C17.3432 10.3548 15.7213 10.8307 14.3273 11.726C12.9333 12.6213 11.826 13.8983 11.1371 15.405C11.8693 15.3631 12.5977 15.3971 13.326 15.5016C14.0877 14.267 15.2312 13.3146 16.5832 12.7889C17.9352 12.2632 19.4218 12.1928 20.8173 12.5885C22.2129 12.9842 23.4414 13.8243 24.3162 14.9814C25.1911 16.1385 25.6654 17.5494 25.6657 19ZM19.0585 34.8333C19.0152 34.836 18.9719 34.836 18.9286 34.8333H19.0585ZM9.18876 7.83352L9.1088 7.76227C8.91145 7.60393 8.66095 7.52719 8.40877 7.54783C8.15659 7.56847 7.9219 7.68493 7.75293 7.87326C7.58396 8.06159 7.49354 8.30749 7.50027 8.56042C7.507 8.81335 7.61035 9.0541 7.7891 9.23319L9.4896 10.9337L9.57035 11.0049C9.76785 11.1618 10.0178 11.2373 10.2691 11.2161C10.5205 11.1949 10.7542 11.0785 10.9226 10.8907C11.091 10.7029 11.1813 10.4579 11.1751 10.2057C11.1689 9.95358 11.0667 9.71332 10.8893 9.53402L9.18876 7.83352ZM30.2693 9.15244C30.4277 8.95501 30.5044 8.70439 30.4837 8.45213C30.463 8.19986 30.3464 7.96512 30.1579 7.79619C29.9694 7.62726 29.7233 7.53699 29.4703 7.54393C29.2172 7.55087 28.9765 7.65451 28.7976 7.83352L27.0971 9.53402L27.0258 9.61477C26.8689 9.81228 26.7934 10.0622 26.8146 10.3136C26.8359 10.5649 26.9523 10.7986 27.1401 10.967C27.3279 11.1354 27.5729 11.2257 27.825 11.2195C28.0772 11.2133 28.3174 11.1111 28.4967 10.9337L30.1972 9.23319L30.2693 9.15244ZM19.9847 4.05331C19.9598 3.80006 19.8384 3.56613 19.6455 3.4001C19.4527 3.23408 19.2033 3.14872 18.9492 3.16176C18.695 3.17481 18.4557 3.28525 18.2808 3.47014C18.106 3.65504 18.0091 3.90018 18.0103 4.15465V6.55973L18.0158 6.66027C18.0426 6.91191 18.1647 7.14375 18.3571 7.30813C18.5495 7.47251 18.7975 7.55694 19.0502 7.54407C19.303 7.53119 19.5412 7.42199 19.7158 7.23891C19.8905 7.05583 19.9885 6.81278 19.9895 6.55973V4.15385L19.9847 4.05331Z" fill="#000080"/>
</svg>
