<svg width="32" height="32" viewBox="0 0 32 32" fill="none" xmlns="http://www.w3.org/2000/svg">
<path d="M29.0741 13.3887H28.0001V13.3333H16.0001V18.6667H23.5354C22.4361 21.7713 19.4821 24 16.0001 24C11.5821 24 8.00008 20.418 8.00008 16C8.00008 11.582 11.5821 7.99999 16.0001 7.99999C18.0394 7.99999 19.8947 8.76932 21.3074 10.026L25.0787 6.25466C22.6974 4.03532 19.5121 2.66666 16.0001 2.66666C8.63675 2.66666 2.66675 8.63666 2.66675 16C2.66675 23.3633 8.63675 29.3333 16.0001 29.3333C23.3634 29.3333 29.3334 23.3633 29.3334 16C29.3334 15.106 29.2414 14.2333 29.0741 13.3887Z" fill="#FFC107"/>
<path d="M4.20435 9.79399L8.58501 13.0067C9.77035 10.072 12.641 7.99999 16.0003 7.99999C18.0397 7.99999 19.895 8.76932 21.3077 10.026L25.079 6.25466C22.6977 4.03532 19.5123 2.66666 16.0003 2.66666C10.879 2.66666 6.43768 5.55799 4.20435 9.79399Z" fill="#FF3D00"/>
<path d="M16.0001 29.3333C19.4441 29.3333 22.5735 28.0153 24.9395 25.872L20.8128 22.38C19.4292 23.4322 17.7384 24.0013 16.0001 24C12.5321 24 9.58746 21.7886 8.47813 18.7026L4.13013 22.0526C6.33679 26.3706 10.8181 29.3333 16.0001 29.3333Z" fill="#4CAF50"/>
<path d="M29.074 13.3887H28V13.3333H16V18.6667H23.5353C23.0095 20.1443 22.0622 21.4355 20.8107 22.3807L20.8127 22.3793L24.9393 25.8713C24.6473 26.1367 29.3333 22.6667 29.3333 16C29.3333 15.106 29.2413 14.2333 29.074 13.3887Z" fill="#1976D2"/>
</svg>
