<svg width="22" height="22" viewBox="0 0 22 22" fill="none" xmlns="http://www.w3.org/2000/svg">
<g clip-path="url(#clip0_17_2687)">
<path d="M20.625 2.06009L15.1202 2.06011V0.689926C15.1202 0.310082 14.8125 0.00242615 14.4327 0.00242615C14.0528 0.00242615 13.7452 0.310082 13.7452 0.689926V2.05977H8.24519V0.689926C8.24519 0.310082 7.93753 0.00242615 7.55769 0.00242615C7.17784 0.00242615 6.87019 0.310082 6.87019 0.689926V2.05977H1.375C0.615656 2.05977 0 2.67543 0 3.43477V20.6223C0 21.3816 0.615656 21.9973 1.375 21.9973H20.625C21.3843 21.9973 22 21.3816 22 20.6223V3.43477C22 2.67575 21.3843 2.06009 20.625 2.06009ZM20.625 20.6223H1.375V3.43477H6.87019V4.12743C6.87019 4.50725 7.17784 4.81493 7.55769 4.81493C7.93753 4.81493 8.24519 4.50725 8.24519 4.12743V3.43511H13.7452V4.12777C13.7452 4.50761 14.0528 4.81527 14.4327 4.81527C14.8125 4.81527 15.1202 4.50761 15.1202 4.12777V3.43511H20.625V20.6223ZM15.8125 10.9976H17.1875C17.567 10.9976 17.875 10.6896 17.875 10.3101V8.93509C17.875 8.55559 17.567 8.24759 17.1875 8.24759H15.8125C15.433 8.24759 15.125 8.55559 15.125 8.93509V10.3101C15.125 10.6896 15.433 10.9976 15.8125 10.9976ZM15.8125 16.4972H17.1875C17.567 16.4972 17.875 16.1896 17.875 15.8097V14.4347C17.875 14.0552 17.567 13.7472 17.1875 13.7472H15.8125C15.433 13.7472 15.125 14.0552 15.125 14.4347V15.8097C15.125 16.1899 15.433 16.4972 15.8125 16.4972ZM11.6875 13.7472H10.3125C9.933 13.7472 9.625 14.0552 9.625 14.4347V15.8097C9.625 16.1896 9.933 16.4972 10.3125 16.4972H11.6875C12.067 16.4972 12.375 16.1896 12.375 15.8097V14.4347C12.375 14.0556 12.067 13.7472 11.6875 13.7472ZM11.6875 8.24759H10.3125C9.933 8.24759 9.625 8.55559 9.625 8.93509V10.3101C9.625 10.6896 9.933 10.9976 10.3125 10.9976H11.6875C12.067 10.9976 12.375 10.6896 12.375 10.3101V8.93509C12.375 8.55525 12.067 8.24759 11.6875 8.24759ZM6.1875 8.24759H4.8125C4.433 8.24759 4.125 8.55559 4.125 8.93509V10.3101C4.125 10.6896 4.433 10.9976 4.8125 10.9976H6.1875C6.567 10.9976 6.875 10.6896 6.875 10.3101V8.93509C6.875 8.55525 6.567 8.24759 6.1875 8.24759ZM6.1875 13.7472H4.8125C4.433 13.7472 4.125 14.0552 4.125 14.4347V15.8097C4.125 16.1896 4.433 16.4972 4.8125 16.4972H6.1875C6.567 16.4972 6.875 16.1896 6.875 15.8097V14.4347C6.875 14.0556 6.567 13.7472 6.1875 13.7472Z" fill="#FFF1F1"/>
</g>
<defs>
<clipPath id="clip0_17_2687">
<rect width="22" height="22" fill="white"/>
</clipPath>
</defs>
</svg>
